<mxfile host="app.diagrams.net" modified="2021-07-25T14:23:48.558Z" agent="5.0 (Windows NT 10.0; Win64; x64) AppleWebKit/537.36 (KHTML, like Gecko) Chrome/92.0.4515.107 Safari/537.36" etag="FAX1c_ssYIqHHikW10Pa" version="14.8.5" type="github">
  <diagram id="PimF_Wanh2Kbo35ScIux" name="Page-1">
    <mxGraphModel dx="834" dy="674" grid="1" gridSize="10" guides="1" tooltips="1" connect="1" arrows="1" fold="1" page="1" pageScale="1" pageWidth="827" pageHeight="1169" math="0" shadow="0">
      <root>
        <mxCell id="0" />
        <mxCell id="1" parent="0" />
        <mxCell id="y2ZCvFs-fsvaWrtGRpLE-3" value="" style="edgeStyle=orthogonalEdgeStyle;rounded=0;orthogonalLoop=1;jettySize=auto;html=1;" edge="1" parent="1" source="y2ZCvFs-fsvaWrtGRpLE-1" target="y2ZCvFs-fsvaWrtGRpLE-2">
          <mxGeometry relative="1" as="geometry" />
        </mxCell>
        <mxCell id="y2ZCvFs-fsvaWrtGRpLE-1" value="XML配置&lt;br&gt;&lt;br&gt;Java Config&lt;br&gt;&lt;br&gt;@注解" style="rounded=0;whiteSpace=wrap;html=1;" vertex="1" parent="1">
          <mxGeometry x="200" y="280" width="110" height="200" as="geometry" />
        </mxCell>
        <mxCell id="y2ZCvFs-fsvaWrtGRpLE-5" value="" style="edgeStyle=orthogonalEdgeStyle;rounded=0;orthogonalLoop=1;jettySize=auto;html=1;" edge="1" parent="1" source="y2ZCvFs-fsvaWrtGRpLE-2" target="y2ZCvFs-fsvaWrtGRpLE-4">
          <mxGeometry relative="1" as="geometry" />
        </mxCell>
        <mxCell id="y2ZCvFs-fsvaWrtGRpLE-2" value="XMLApplicationContext&lt;br&gt;&lt;br&gt;@ApplicationContext" style="whiteSpace=wrap;html=1;rounded=0;" vertex="1" parent="1">
          <mxGeometry x="385" y="350" width="145" height="60" as="geometry" />
        </mxCell>
        <mxCell id="y2ZCvFs-fsvaWrtGRpLE-12" style="edgeStyle=orthogonalEdgeStyle;rounded=0;orthogonalLoop=1;jettySize=auto;html=1;exitX=0.5;exitY=1;exitDx=0;exitDy=0;entryX=0.5;entryY=0;entryDx=0;entryDy=0;" edge="1" parent="1" source="y2ZCvFs-fsvaWrtGRpLE-4" target="y2ZCvFs-fsvaWrtGRpLE-6">
          <mxGeometry relative="1" as="geometry" />
        </mxCell>
        <mxCell id="y2ZCvFs-fsvaWrtGRpLE-4" value="BeanDefinitionReader" style="whiteSpace=wrap;html=1;rounded=0;fillColor=#CDA2BE;" vertex="1" parent="1">
          <mxGeometry x="590" y="365" width="132.5" height="30" as="geometry" />
        </mxCell>
        <mxCell id="y2ZCvFs-fsvaWrtGRpLE-13" style="edgeStyle=orthogonalEdgeStyle;rounded=0;orthogonalLoop=1;jettySize=auto;html=1;exitX=0.5;exitY=1;exitDx=0;exitDy=0;entryX=0.5;entryY=0;entryDx=0;entryDy=0;" edge="1" parent="1" source="y2ZCvFs-fsvaWrtGRpLE-6" target="y2ZCvFs-fsvaWrtGRpLE-7">
          <mxGeometry relative="1" as="geometry" />
        </mxCell>
        <mxCell id="y2ZCvFs-fsvaWrtGRpLE-6" value="BeanDefinitionScanner" style="whiteSpace=wrap;html=1;rounded=0;fillColor=#FFFFCC;" vertex="1" parent="1">
          <mxGeometry x="590" y="450" width="132.5" height="30" as="geometry" />
        </mxCell>
        <mxCell id="y2ZCvFs-fsvaWrtGRpLE-14" style="edgeStyle=orthogonalEdgeStyle;rounded=0;orthogonalLoop=1;jettySize=auto;html=1;exitX=0.5;exitY=1;exitDx=0;exitDy=0;entryX=0.5;entryY=1;entryDx=0;entryDy=0;" edge="1" parent="1" source="y2ZCvFs-fsvaWrtGRpLE-7" target="y2ZCvFs-fsvaWrtGRpLE-8">
          <mxGeometry relative="1" as="geometry" />
        </mxCell>
        <mxCell id="y2ZCvFs-fsvaWrtGRpLE-7" value="BeanDefinitionRegistry" style="whiteSpace=wrap;html=1;rounded=0;fillColor=#FFFFFF;" vertex="1" parent="1">
          <mxGeometry x="590" y="510" width="132.5" height="30" as="geometry" />
        </mxCell>
        <mxCell id="y2ZCvFs-fsvaWrtGRpLE-16" style="edgeStyle=orthogonalEdgeStyle;rounded=0;orthogonalLoop=1;jettySize=auto;html=1;exitX=0.5;exitY=0;exitDx=0;exitDy=0;entryX=0.5;entryY=1;entryDx=0;entryDy=0;" edge="1" parent="1" source="y2ZCvFs-fsvaWrtGRpLE-8" target="y2ZCvFs-fsvaWrtGRpLE-15">
          <mxGeometry relative="1" as="geometry" />
        </mxCell>
        <mxCell id="y2ZCvFs-fsvaWrtGRpLE-8" value="" style="rounded=0;whiteSpace=wrap;html=1;fillColor=#FFFFFF;" vertex="1" parent="1">
          <mxGeometry x="840" y="280" width="240" height="220" as="geometry" />
        </mxCell>
        <mxCell id="y2ZCvFs-fsvaWrtGRpLE-9" value="BeanDefinitionMap" style="text;html=1;strokeColor=none;fillColor=none;align=center;verticalAlign=middle;whiteSpace=wrap;rounded=0;" vertex="1" parent="1">
          <mxGeometry x="900" y="290" width="120" height="20" as="geometry" />
        </mxCell>
        <mxCell id="y2ZCvFs-fsvaWrtGRpLE-15" value="BeanFactory" style="rounded=0;whiteSpace=wrap;html=1;fillColor=#FFFFFF;" vertex="1" parent="1">
          <mxGeometry x="880" y="130" width="160" height="30" as="geometry" />
        </mxCell>
      </root>
    </mxGraphModel>
  </diagram>
</mxfile>
